HIERARCHY
ROOT Hips
{
  OFFSET 5.80788e-005 67.184 3.4734
  CHANNELS 6 Xposition Yposition Zposition Zrotation Xrotation Yrotation
  JOINT Chest
  {
    OFFSET 0 8.7983 -4.7612
    CHANNELS 6 Xposition Yposition Zposition Zrotation Xrotation Yrotation
    JOINT Chest2
    {
      OFFSET 0 8.0291 0.4195
      CHANNELS 6 Xposition Yposition Zposition Zrotation Xrotation Yrotation
      JOINT Chest3
      {
        OFFSET 0 9.9351 -2.2114
        CHANNELS 6 Xposition Yposition Zposition Zrotation Xrotation Yrotation
        JOINT Neck
        {
          OFFSET 0 22.3885 -0.4656
          CHANNELS 6 Xposition Yposition Zposition Zrotation Xrotation Yrotation
          JOINT Head
          {
            OFFSET -0.0001 12.643 3.4389
            CHANNELS 6 Xposition Yposition Zposition Zrotation Xrotation Yrotation
            End Site
            {
              OFFSET 0.0001 17.6655 0.5274
            }
          }
        }
        JOINT LeftCollar
        {
          OFFSET 2.2603 21.606 7.4023
          CHANNELS 6 Xposition Yposition Zposition Zrotation Xrotation Yrotation
          JOINT LeftShoulder
          {
            OFFSET 13.5163 -1.1332 -5.0146
            CHANNELS 6 Xposition Yposition Zposition Zrotation Xrotation Yrotation
            JOINT LeftElbow
            {
              OFFSET -0.0995 -28.05 -0.2431
              CHANNELS 6 Xposition Yposition Zposition Zrotation Xrotation Yrotation
              JOINT LeftWrist
              {
                OFFSET 0.0679 -23.3996 -0.1402
                CHANNELS 6 Xposition Yposition Zposition Zrotation Xrotation Yrotation
                JOINT LeftFinger1
                {
                  OFFSET 0.7932 -9.069 2.5189
                  CHANNELS 6 Xposition Yposition Zposition Zrotation Xrotation Yrotation
                  JOINT LeftFinger11
                  {
                    OFFSET -0.8272 -3.3923 0.5977
                    CHANNELS 6 Xposition Yposition Zposition Zrotation Xrotation Yrotation
                    JOINT LeftFinger12
                    {
                      OFFSET -0.5649 -2.3158 0.4082
                      CHANNELS 6 Xposition Yposition Zposition Zrotation Xrotation Yrotation
                      End Site
                      {
                        OFFSET -0.4919 -1.6479 0.2673
                      }
                    }
                  }
                }
                JOINT LeftFinger2
                {
                  OFFSET 0.9159 -9.2044 0.2193
                  CHANNELS 6 Xposition Yposition Zposition Zrotation Xrotation Yrotation
                  JOINT LeftFinger21
                  {
                    OFFSET 0.0117 -4.1944 -0.0248
                    CHANNELS 6 Xposition Yposition Zposition Zrotation Xrotation Yrotation
                    JOINT LeftFinger22
                    {
                      OFFSET 0.0071 -2.3249 -0.0142
                      CHANNELS 6 Xposition Yposition Zposition Zrotation Xrotation Yrotation
                      End Site
                      {
                        OFFSET -0.1475 -2.0882 0.0028
                      }
                    }
                  }
                }
                JOINT LeftFinger3
                {
                  OFFSET 0.6113 -8.7231 -2.0637
                  CHANNELS 6 Xposition Yposition Zposition Zrotation Xrotation Yrotation
                  JOINT LeftFinger31
                  {
                    OFFSET -0.1927 -3.8059 -0.2383
                    CHANNELS 6 Xposition Yposition Zposition Zrotation Xrotation Yrotation
                    JOINT LeftFinger32
                    {
                      OFFSET -0.1091 -2.1688 -0.1362
                      CHANNELS 6 Xposition Yposition Zposition Zrotation Xrotation Yrotation
                      End Site
                      {
                        OFFSET -0.2358 -1.9176 -0.0906
                      }
                    }
                  }
                }
                JOINT LeftFinger4
                {
                  OFFSET -0.6151 -8.0947 -3.5641
                  CHANNELS 6 Xposition Yposition Zposition Zrotation Xrotation Yrotation
                  JOINT LeftFinger41
                  {
                    OFFSET -0.4882 -2.341 -0.6462
                    CHANNELS 6 Xposition Yposition Zposition Zrotation Xrotation Yrotation
                    JOINT LeftFinger42
                    {
                      OFFSET -0.3575 -1.7167 -0.4742
                      CHANNELS 6 Xposition Yposition Zposition Zrotation Xrotation Yrotation
                      End Site
                      {
                        OFFSET -0.4187 -1.5237 -0.3496
                      }
                    }
                  }
                }
                JOINT LeftFinger0
                {
                  OFFSET -1.42 -1.8761 1.4223
                  CHANNELS 6 Xposition Yposition Zposition Zrotation Xrotation Yrotation
                  JOINT LeftFinger01
                  {
                    OFFSET -1.1471 -3.4929 2.6334
                    CHANNELS 6 Xposition Yposition Zposition Zrotation Xrotation Yrotation
                    JOINT LeftFinger02
                    {
                      OFFSET -0.823 -2.3 1.6571
                      CHANNELS 6 Xposition Yposition Zposition Zrotation Xrotation Yrotation
                      End Site
                      {
                        OFFSET -0.5822 -1.6914 1.1582
                      }
                    }
                  }
                }
              }
            }
          }
        }
        JOINT RightCollar
        {
          OFFSET -2.2603 21.606 7.4023
          CHANNELS 6 Xposition Yposition Zposition Zrotation Xrotation Yrotation
          JOINT RightShoulder
          {
            OFFSET -13.5187 -1.1334 -5.0155
            CHANNELS 6 Xposition Yposition Zposition Zrotation Xrotation Yrotation
            JOINT RightElbow
            {
              OFFSET 0.0994 -28.0499 -0.2431
              CHANNELS 6 Xposition Yposition Zposition Zrotation Xrotation Yrotation
              JOINT RightWrist
              {
                OFFSET -0.0679 -23.3996 -0.1402
                CHANNELS 6 Xposition Yposition Zposition Zrotation Xrotation Yrotation
                JOINT RightFinger1
                {
                  OFFSET -0.7932 -9.0691 2.5189
                  CHANNELS 6 Xposition Yposition Zposition Zrotation Xrotation Yrotation
                  JOINT RightFinger11
                  {
                    OFFSET 0.8272 -3.3923 0.5977
                    CHANNELS 6 Xposition Yposition Zposition Zrotation Xrotation Yrotation
                    JOINT RightFinger12
                    {
                      OFFSET 0.565 -2.3158 0.4082
                      CHANNELS 6 Xposition Yposition Zposition Zrotation Xrotation Yrotation
                      End Site
                      {
                        OFFSET 0.4919 -1.6479 0.2673
                      }
                    }
                  }
                }
                JOINT RightFinger2
                {
                  OFFSET -0.916 -9.2044 0.2193
                  CHANNELS 6 Xposition Yposition Zposition Zrotation Xrotation Yrotation
                  JOINT RightFinger21
                  {
                    OFFSET -0.0117 -4.1944 -0.0248
                    CHANNELS 6 Xposition Yposition Zposition Zrotation Xrotation Yrotation
                    JOINT RightFinger22
                    {
                      OFFSET -0.0071 -2.3249 -0.0142
                      CHANNELS 6 Xposition Yposition Zposition Zrotation Xrotation Yrotation
                      End Site
                      {
                        OFFSET 0.1475 -2.0882 0.0028
                      }
                    }
                  }
                }
                JOINT RightFinger3
                {
                  OFFSET -0.6113 -8.7231 -2.0637
                  CHANNELS 6 Xposition Yposition Zposition Zrotation Xrotation Yrotation
                  JOINT RightFinger31
                  {
                    OFFSET 0.1927 -3.8059 -0.2383
                    CHANNELS 6 Xposition Yposition Zposition Zrotation Xrotation Yrotation
                    JOINT RightFinger32
                    {
                      OFFSET 0.1091 -2.1688 -0.1362
                      CHANNELS 6 Xposition Yposition Zposition Zrotation Xrotation Yrotation
                      End Site
                      {
                        OFFSET 0.2358 -1.9176 -0.0906
                      }
                    }
                  }
                }
                JOINT RightFinger4
                {
                  OFFSET 0.6151 -8.0947 -3.564
                  CHANNELS 6 Xposition Yposition Zposition Zrotation Xrotation Yrotation
                  JOINT RightFinger41
                  {
                    OFFSET 0.4882 -2.341 -0.6462
                    CHANNELS 6 Xposition Yposition Zposition Zrotation Xrotation Yrotation
                    JOINT RightFinger42
                    {
                      OFFSET 0.3574 -1.7166 -0.4742
                      CHANNELS 6 Xposition Yposition Zposition Zrotation Xrotation Yrotation
                      End Site
                      {
                        OFFSET 0.4187 -1.5237 -0.3496
                      }
                    }
                  }
                }
                JOINT RightFinger0
                {
                  OFFSET 1.4199 -1.8761 1.4221
                  CHANNELS 6 Xposition Yposition Zposition Zrotation Xrotation Yrotation
                  JOINT RightFinger01
                  {
                    OFFSET 1.1472 -3.4929 2.6336
                    CHANNELS 6 Xposition Yposition Zposition Zrotation Xrotation Yrotation
                    JOINT RightFinger02
                    {
                      OFFSET 0.8229 -2.3 1.6571
                      CHANNELS 6 Xposition Yposition Zposition Zrotation Xrotation Yrotation
                      End Site
                      {
                        OFFSET 0.5822 -1.6914 1.1582
                      }
                    }
                  }
                }
              }
            }
          }
        }
      }
    }
  }
  JOINT RightHip
  {
    OFFSET -9.412 3.9771 -0.7758
    CHANNELS 6 Xposition Yposition Zposition Zrotation Xrotation Yrotation
    JOINT RightKnee
    {
      OFFSET -0.7531 -40.938 0
      CHANNELS 6 Xposition Yposition Zposition Zrotation Xrotation Yrotation
      JOINT RightAnkle
      {
        OFFSET 0 -40.1986 0
        CHANNELS 6 Xposition Yposition Zposition Zrotation Xrotation Yrotation
        JOINT RightToe
        {
          OFFSET 0 -4.4182 9.239
          CHANNELS 6 Xposition Yposition Zposition Zrotation Xrotation Yrotation
          End Site
          {
            OFFSET 0 0 6.1981
          }
        }
      }
    }
  }
  JOINT LeftHip
  {
    OFFSET 9.4119 3.9773 -0.7758
    CHANNELS 6 Xposition Yposition Zposition Zrotation Xrotation Yrotation
    JOINT LeftKnee
    {
      OFFSET 0.7532 -40.9383 0
      CHANNELS 6 Xposition Yposition Zposition Zrotation Xrotation Yrotation
      JOINT LeftAnkle
      {
        OFFSET 0 -40.1986 0
        CHANNELS 6 Xposition Yposition Zposition Zrotation Xrotation Yrotation
        JOINT LeftToe
        {
          OFFSET 0 -4.4182 9.239
          CHANNELS 6 Xposition Yposition Zposition Zrotation Xrotation Yrotation
          End Site
          {
            OFFSET 0 0 6.1981
          }
        }
      }
    }
  }
}
MOTION
Frames:	4
Frame Time:	0.0333333
12.0064 5.35583 5.52038 90 6.4033e-007 7.00164 8.88179e-016 8.7983 -4.7612 0.18002 6.43727 -0.182355 0 8.0291 0.4195 0.384446 12.8739 -0.388935 0 9.9351 -2.2114 0.384465 12.8739 -0.388938 -8.88179e-016 22.3885 -0.4656 -9.61968 22.5081 3.72787 -0.0001 12.643 3.4389 -25.1818 9.06739 5.22131 2.2603 21.606 7.4023 -20.8328 -0.147544 -15.6911 13.5163 -1.1332 -5.0146 70.4271 -34.3927 9.9443 -0.0995 -28.05 -0.2431 -64.6876 -16.9933 -25.3652 0.0679 -23.3996 -0.1402 14.2624 10.9202 -1.23173 0.7932 -9.069 2.5189 -1.59028e-015 -4.77083e-015 -6.36111e-015 -0.8272 -3.3923 0.5977 -4.77083e-015 1.59028e-015 -3.18055e-015 -0.5649 -2.3158 0.4082 1.59028e-015 0 3.18055e-015 0.9159 -9.2044 0.2193 -1.59028e-015 -4.77083e-015 -6.36111e-015 0.0117 -4.1944 -0.0248 -0.0128231 0.00231777 7.95642e-005 0.0071 -2.3249 -0.0142 -3.18055e-015 9.54166e-015 3.18055e-015 0.6113 -8.7231 -2.0637 -1.59028e-015 -4.77083e-015 -6.36111e-015 -0.1927 -3.8059 -0.2383 -0.0160608 0.00298386 0.000856821 -0.1091 -2.1688 -0.1362 -1.59028e-015 -1.59028e-015 -6.36111e-015 -0.6151 -8.0947 -3.5641 -1.59028e-015 -4.77083e-015 -6.36111e-015 -0.4882 -2.341 -0.6462 -0.0125814 0.00311109 0.00281907 -0.3575 -1.7167 -0.4742 3.18055e-015 0 1.27222e-014 -1.42 -1.8761 1.4223 -1.59028e-015 -4.77083e-015 -6.36111e-015 -1.1471 -3.4929 2.6334 -4.77083e-015 1.59028e-015 -3.18055e-015 -0.823 -2.3 1.6571 1.59028e-015 0 3.18055e-015 -2.2603 21.606 7.4023 -10.9658 16.4643 -2.91811 -13.5187 -1.1334 -5.0155 9.32702 31.9713 -24.4628 0.0994 -28.0499 -0.2431 145.494 -63.4506 152.552 -0.0679 -23.3996 -0.1402 -3.46006 -21.7928 -17.672 -0.7932 -9.0691 2.5189 -3.97569e-016 3.18055e-015 -7.95139e-016 0.8272 -3.3923 0.5977 3.97569e-016 1.27222e-014 -0 0.565 -2.3158 0.4082 1.59028e-015 6.36111e-015 -0 -0.916 -9.2044 0.2193 -3.97569e-016 3.18055e-015 -7.95139e-016 -0.0117 -4.1944 -0.0248 0.0129441 0.00232244 -8.49488e-005 -0.0071 -2.3249 -0.0142 7.95139e-016 6.36111e-015 1.19271e-015 -0.6113 -8.7231 -2.0637 -3.97569e-016 3.18055e-015 -7.95139e-016 0.1927 -3.8059 -0.2383 0.0162875 0.00303678 -0.000866963 0.1091 -2.1688 -0.1362 3.49692e-006 2.4745e-006 1.45338e-006 0.6151 -8.0947 -3.564 -3.97569e-016 3.18055e-015 -7.95139e-016 0.4882 -2.341 -0.6462 0.0145776 0.00367542 -0.00325657 0.3574 -1.7166 -0.4742 -1.19271e-015 -9.54166e-015 -1.19271e-015 1.4199 -1.8761 1.4221 -3.97569e-016 3.18055e-015 -7.95139e-016 1.1472 -3.4929 2.6336 3.97569e-016 1.27222e-014 -0 0.8229 -2.3 1.6571 1.59028e-015 6.36111e-015 -0 -9.412 3.9771 -0.7758 -34.2894 -55.8044 -42.844 -0.7531 -40.938 8.88179e-016 23.1944 84.2488 -23.9643 -8.88178e-016 -40.1986 0 -6.58979 3.87141 -2.04346 8.88179e-016 -4.4182 9.239 7.42426e-007 -3.05364e-007 -1.45949e-006 9.4119 3.9773 -0.7758 40.875 -53.1407 74.6662 0.7532 -40.9383 3.9968e-015 -142.3 58.0951 145.629 0 -40.1986 0 2.29121 7.3089 -4.1158 0 -4.4182 9.239 -3.18055e-015 3.18055e-015 -0 
11.803 5.37358 5.43661 90 -7.25708e-006 7.00164 0 8.7983 -4.7612 0.180733 6.38813 -0.18227 0 8.0291 0.4195 0.385678 12.7756 -0.388608 -8.88179e-016 9.9351 -2.2114 0.38568 12.7757 -0.388613 0 22.3885 -0.4656 -9.43997 22.2668 3.63958 -0.0001 12.643 3.4389 -24.9823 9.08361 5.17343 2.2603 21.606 7.4023 -21.5087 0.041302 -16.5481 13.5163 -1.1332 -5.0146 70.4015 -33.9681 9.87481 -0.0995 -28.05 -0.2431 -62.7393 -17.0794 -24.6109 0.0679 -23.3996 -0.1402 13.1654 10.4423 -1.08706 0.7932 -9.069 2.5189 -1.59028e-015 -4.77083e-015 -9.54166e-015 -0.8272 -3.3923 0.5977 -3.18055e-015 -1.59028e-015 3.18055e-015 -0.5649 -2.3158 0.4082 -1.76556e-031 1.59028e-015 6.36111e-015 0.9159 -9.2044 0.2193 -1.59028e-015 -4.77083e-015 -9.54166e-015 0.0117 -4.1944 -0.0248 -0.0128006 0.0023247 7.97556e-005 0.0071 -2.3249 -0.0142 -3.18055e-015 4.77083e-015 -1.59028e-014 0.6113 -8.7231 -2.0637 -1.59028e-015 -4.77083e-015 -9.54166e-015 -0.1927 -3.8059 -0.2383 -0.0160361 0.00299511 0.000847181 -0.1091 -2.1688 -0.1362 -3.18055e-015 -1.59028e-015 -3.18055e-015 -0.6151 -8.0947 -3.5641 -1.59028e-015 -4.77083e-015 -9.54166e-015 -0.4882 -2.341 -0.6462 -0.0125656 0.00312139 0.00281765 -0.3575 -1.7167 -0.4742 -3.18055e-015 3.18055e-015 -6.36111e-015 -1.42 -1.8761 1.4223 -1.59028e-015 -4.77083e-015 -9.54166e-015 -1.1471 -3.4929 2.6334 -3.18055e-015 -1.59028e-015 3.18055e-015 -0.823 -2.3 1.6571 -1.76556e-031 1.59028e-015 6.36111e-015 -2.2603 21.606 7.4023 -10.4909 15.8465 -2.72676 -13.5187 -1.1334 -5.0155 8.75422 31.7758 -24.2515 0.0994 -28.0499 -0.2431 145.477 -63.8911 152.514 -0.0679 -23.3996 -0.1402 -3.49647 -21.0877 -17.4998 -0.7932 -9.0691 2.5189 1.19271e-015 1.90833e-014 3.97569e-016 0.8272 -3.3923 0.5977 -3.08359e-006 -5.82454e-006 9.18879e-007 0.565 -2.3158 0.4082 -3.97569e-016 0 5.96354e-016 -0.916 -9.2044 0.2193 1.19271e-015 1.90833e-014 3.97569e-016 -0.0117 -4.1944 -0.0248 0.0129588 0.00231782 -8.92379e-005 -0.0071 -2.3249 -0.0142 -6.90327e-006 5.1261e-006 7.04122e-006 -0.6113 -8.7231 -2.0637 1.19271e-015 1.90833e-014 3.97569e-016 0.1927 -3.8059 -0.2383 0.0163267 0.00303556 -0.000869996 0.1091 -2.1688 -0.1362 -3.97569e-016 3.18055e-015 1.98785e-016 0.6151 -8.0947 -3.564 1.19271e-015 1.90833e-014 3.97569e-016 0.4882 -2.341 -0.6462 0.0145917 0.00368085 -0.00326756 0.3574 -1.7166 -0.4742 -7.95139e-016 6.36111e-015 1.59028e-015 1.4199 -1.8761 1.4221 1.19271e-015 1.90833e-014 3.97569e-016 1.1472 -3.4929 2.6336 -3.08359e-006 -5.82454e-006 9.18879e-007 0.8229 -2.3 1.6571 -3.97569e-016 0 5.96354e-016 -9.412 3.9771 -0.7758 -34.0512 -55.622 -42.6084 -0.7531 -40.938 4.44089e-015 21.9062 83.7984 -22.6795 1.77636e-015 -40.1986 0 -6.60267 4.09289 -1.99046 0 -4.4182 9.239 -2.38542e-015 -6.36111e-015 1.59028e-015 9.4119 3.9773 -0.7758 40.6199 -53.0538 74.3868 0.7532 -40.9383 -3.10863e-015 -141.793 58.3362 145.186 -3.55271e-015 -40.1986 -7.10543e-015 2.33887 7.52523 -4.23619 0 -4.4182 9.239 -1.57049e-006 -4.70786e-007 3.02322e-008 
11.6194 5.38961 5.36098 90 -6.4033e-007 7.00164 8.88179e-016 8.7983 -4.7612 0.181576 6.34375 -0.1821 8.88179e-016 8.0291 0.4195 0.387194 12.6869 -0.388179 -8.88179e-016 9.9351 -2.2114 0.387194 12.6869 -0.388181 0 22.3885 -0.4656 -9.27897 22.0497 3.56108 -0.0001 12.643 3.4389 -24.8031 9.09802 5.13036 2.2603 21.606 7.4023 -22.1176 0.221636 -17.3211 13.5163 -1.1332 -5.0146 70.4747 -33.7438 9.86578 -0.0995 -28.05 -0.2431 -60.9794 -17.0453 -23.7723 0.0679 -23.3996 -0.1402 12.176 10.0076 -0.965298 0.7932 -9.069 2.5189 -1.59028e-015 9.54166e-015 3.18055e-015 -0.8272 -3.3923 0.5977 3.18055e-015 7.95139e-015 3.18055e-015 -0.5649 -2.3158 0.4082 4.77083e-015 4.77083e-015 3.18055e-015 0.9159 -9.2044 0.2193 -1.59028e-015 9.54166e-015 3.18055e-015 0.0117 -4.1944 -0.0248 -0.0128382 0.0023275 8.3077e-005 0.0071 -2.3249 -0.0142 3.18055e-015 1.59028e-015 -6.36111e-015 0.6113 -8.7231 -2.0637 -1.59028e-015 9.54166e-015 3.18055e-015 -0.1927 -3.8059 -0.2383 -0.0160594 0.0029945 0.000876933 -0.1091 -2.1688 -0.1362 -3.18055e-015 -1.59028e-015 -1.27222e-014 -0.6151 -8.0947 -3.5641 -1.59028e-015 9.54166e-015 3.18055e-015 -0.4882 -2.341 -0.6462 -0.0125421 0.00311221 0.00282209 -0.3575 -1.7167 -0.4742 3.53113e-031 1.59028e-015 -1.27222e-014 -1.42 -1.8761 1.4223 -1.59028e-015 9.54166e-015 3.18055e-015 -1.1471 -3.4929 2.6334 3.18055e-015 7.95139e-015 3.18055e-015 -0.823 -2.3 1.6571 4.77083e-015 4.77083e-015 3.18055e-015 -2.2603 21.606 7.4023 -10.0613 15.2898 -2.5492 -13.5187 -1.1334 -5.0155 8.23887 31.5975 -24.0633 0.0994 -28.0499 -0.2431 145.461 -64.289 152.48 -0.0679 -23.3996 -0.1402 -3.53147 -20.4507 -17.3447 -0.7932 -9.0691 2.5189 5.03207e-006 -3.71921e-006 -7.34052e-006 0.8272 -3.3923 0.5977 1.59028e-015 -6.36111e-015 -0 0.565 -2.3158 0.4082 1.19271e-015 -3.18055e-015 -5.96354e-016 -0.916 -9.2044 0.2193 5.03207e-006 -3.71921e-006 -7.34052e-006 -0.0117 -4.1944 -0.0248 0.0129341 0.00231238 -8.93408e-005 -0.0071 -2.3249 -0.0142 7.95139e-016 0 -5.96354e-016 -0.6113 -8.7231 -2.0637 5.03207e-006 -3.71921e-006 -7.34052e-006 0.1927 -3.8059 -0.2383 0.0163389 0.00303927 -0.000868715 0.1091 -2.1688 -0.1362 8.27052e-008 1.47306e-006 -3.06726e-006 0.6151 -8.0947 -3.564 5.03207e-006 -3.71921e-006 -7.34052e-006 0.4882 -2.341 -0.6462 0.0145685 0.00367715 -0.0032596 0.3574 -1.7166 -0.4742 -1.76556e-031 1.27222e-014 7.95139e-016 1.4199 -1.8761 1.4221 5.03207e-006 -3.71921e-006 -7.34052e-006 1.1472 -3.4929 2.6336 1.59028e-015 -6.36111e-015 -0 0.8229 -2.3 1.6571 1.19271e-015 -3.18055e-015 -5.96354e-016 -9.412 3.9771 -0.7758 -33.8385 -55.4568 -42.3981 -0.7531 -40.938 3.9968e-015 20.8964 83.3895 -21.6713 8.88179e-016 -40.1986 0 -6.61456 4.29285 -1.94253 1.77636e-015 -4.4182 9.239 1.48312e-006 -1.7263e-006 -2.91981e-006 9.4119 3.9773 -0.7758 40.4197 -52.9623 74.1587 0.7532 -40.9383 -8.88179e-016 -141.36 58.5414 144.795 3.55271e-015 -40.1986 0 2.38233 7.72037 -4.34501 -3.55271e-015 -4.4182 9.239 -1.59028e-015 0 -0 
11.4358 5.40563 5.28535 90 1.28066e-006 7.00164 0 8.7983 -4.7612 0.18199 6.29936 -0.181822 0 8.0291 0.4195 0.387771 12.5981 -0.387467 8.88178e-016 9.9351 -2.2114 0.387762 12.5981 -0.387473 0 22.3885 -0.4656 -9.11847 21.8322 3.48329 -0.0001 12.643 3.4389 -24.6238 9.1123 5.08725 2.2603 21.606 7.4023 -22.7248 0.4103 -18.0931 13.5163 -1.1332 -5.0146 70.4077 -33.288 9.7788 -0.0995 -28.05 -0.2431 -59.2092 -17.1102 -23.1597 0.0679 -23.3996 -0.1402 11.1875 9.5703 -0.851067 0.7932 -9.069 2.5189 4.77083e-015 -1.59028e-015 6.36111e-015 -0.8272 -3.3923 0.5977 -3.43418e-006 -1.57156e-006 6.68187e-006 -0.5649 -2.3158 0.4082 3.18055e-015 -7.95139e-015 -0 0.9159 -9.2044 0.2193 4.77083e-015 -1.59028e-015 6.36111e-015 0.0117 -4.1944 -0.0248 -0.0128367 0.00232628 8.12526e-005 0.0071 -2.3249 -0.0142 3.18055e-015 9.54166e-015 3.18055e-015 0.6113 -8.7231 -2.0637 4.77083e-015 -1.59028e-015 6.36111e-015 -0.1927 -3.8059 -0.2383 -0.0160236 0.00299891 0.00086444 -0.1091 -2.1688 -0.1362 -4.77083e-015 7.95139e-015 -0 -0.6151 -8.0947 -3.5641 4.77083e-015 -1.59028e-015 6.36111e-015 -0.4882 -2.341 -0.6462 -0.0126194 0.00313213 0.0028327 -0.3575 -1.7167 -0.4742 -1.59028e-015 4.77083e-015 -9.54166e-015 -1.42 -1.8761 1.4223 4.77083e-015 -1.59028e-015 6.36111e-015 -1.1471 -3.4929 2.6334 -3.43418e-006 -1.57156e-006 6.68187e-006 -0.823 -2.3 1.6571 3.18055e-015 -7.95139e-015 -0 -2.2603 21.606 7.4023 -9.63083 14.7339 -2.36766 -13.5187 -1.1334 -5.0155 7.72501 31.4177 -23.8773 0.0994 -28.0499 -0.2431 145.445 -64.6868 152.445 -0.0679 -23.3996 -0.1402 -3.56817 -19.8134 -17.1898 -0.7932 -9.0691 2.5189 8.30193e-006 -5.11952e-006 -6.04141e-006 0.8272 -3.3923 0.5977 1.74119e-006 4.68026e-006 7.31028e-007 0.565 -2.3158 0.4082 -7.15625e-015 -6.36111e-015 9.93923e-015 -0.916 -9.2044 0.2193 8.30193e-006 -5.11952e-006 -6.04141e-006 -0.0117 -4.1944 -0.0248 0.0129378 0.00231623 -9.15261e-005 -0.0071 -2.3249 -0.0142 -1.59028e-015 3.18055e-015 -9.93923e-016 -0.6113 -8.7231 -2.0637 8.30193e-006 -5.11952e-006 -6.04141e-006 0.1927 -3.8059 -0.2383 0.0163477 0.00304521 -0.000879424 0.1091 -2.1688 -0.1362 7.95139e-016 -6.36111e-015 1.98785e-016 0.6151 -8.0947 -3.564 8.30193e-006 -5.11952e-006 -6.04141e-006 0.4882 -2.341 -0.6462 0.01458 0.00368577 -0.00325858 0.3574 -1.7166 -0.4742 5.90423e-006 -5.91777e-006 5.30527e-008 1.4199 -1.8761 1.4221 8.30193e-006 -5.11952e-006 -6.04141e-006 1.1472 -3.4929 2.6336 1.74119e-006 4.68026e-006 7.31028e-007 0.8229 -2.3 1.6571 -7.15625e-015 -6.36111e-015 9.93923e-015 -9.412 3.9771 -0.7758 -33.6276 -55.2911 -42.1898 -0.7531 -40.938 -1.33227e-015 20.0032 82.9786 -20.7799 0 -40.1986 7.10543e-015 -6.62669 4.49283 -1.8946 8.88178e-016 -4.4182 9.239 1.59028e-015 6.36111e-015 -1.59028e-015 9.4119 3.9773 -0.7758 40.1629 -52.8949 73.8865 0.7532 -40.9383 -4.44089e-016 -140.862 58.7659 144.368 0 -40.1986 0 2.42626 7.9154 -4.45393 0 -4.4182 9.239 -0 -3.18055e-015 -0 
